<?xml version='1.0' encoding='UTF-8' standalone='no'?>
<svg
  xmlns:dc="http://purl.org/dc/elements/1.1/"
  xmlns:cc="http://creativecommons.org/ns#"
  xmlns:rdf="http://www.w3.org/1999/02/22-rdf-syntax-ns#"
  xmlns:svg="http://www.w3.org/2000/svg"
  xmlns="http://www.w3.org/2000/svg"
  x="0in"
  width="2.1358268in"
  viewBox="0 0 2135.8274 3540.1587"
  id="svg2"
  y="0in"
  version="1.2"
  height="3.5401576in">
  <desc
    id="desc2">
    <referenceFile>hx8357_1_breadboard.svg</referenceFile>
  </desc>
  <metadata
    id="metadata991"
  />
  <defs
    id="defs989"
  />
  <metadata
    id="metadata8429">
    <rdf:RDF>
      <cc:Work
        rdf:about="">
        <dc:format>image/svg+xml</dc:format>
        <dc:type
          rdf:resource="http://purl.org/dc/dcmitype/StillImage"
        />
        <dc:title/>
      </cc:Work>
    </rdf:RDF>
  </metadata>
  <g
    id="breadboard">
    <rect
      y="-1.4210855e-14"
      x="0"
      height="3540.1587"
      width="2135.8274"
      id="rect1883"
      fill="#0000d4"
      stroke-width="9.28291321"
    />
    <circle
      cy="73.149689"
      cx="86.616798"
      id="circle116"
      r="59.055138"
      fill="#ffffff"
      stroke="none"
      stroke-width="0"
    />
    <rect
      y="3352.9143"
      x="1910.1354"
      height="52.989681"
      width="52.989681"
      id="rect88"
      fill="#ffffff"
      stroke="#e6aa50"
      stroke-width="11.61450386"
    />
    <circle
      r="59.055138"
      id="circle114"
      cx="78.742783"
      cy="3466.8328"
      fill="#ffffff"
      stroke="none"
      stroke-width="0"
    />
    <circle
      cy="3466.8328"
      cx="2057.0898"
      id="circle112"
      r="59.055138"
      fill="#ffffff"
      stroke="none"
      stroke-width="0"
    />
    <circle
      id="path110"
      cx="2057.0898"
      cy="73.149704"
      r="59.055138"
      fill="#ffffff"
      stroke="none"
      stroke-width="0"
    />
    <text
      x="286.47415"
      id="text196"
      font-size="66.16173553"
      y="3263.582"
      transform="scale(0.99337795,1.0066662)"
      font-family="OCRA"
      text-anchor="start"
      fill="#ffffff"
      stroke="none"
      stroke-width="0"
    />
    <line
      x1="2100.041"
      x2="33.312012"
      id="line564"
      y2="3307.3169"
      y1="3307.3169"
      stroke="#ffffff"
      stroke-width="4.86429453"
      stroke-linecap="round"
    />
    <line
      x1="2100.041"
      x2="2100.041"
      id="line566"
      y2="3307.3169"
      y1="165.21744"
      stroke="#ffffff"
      stroke-width="4.86429453"
      stroke-linecap="round"
    />
    <line
      x1="33.312012"
      x2="33.312012"
      id="line568"
      y2="165.21744"
      y1="3307.3169"
      stroke="#ffffff"
      stroke-width="4.86429453"
      stroke-linecap="round"
    />
    <line
      x1="33.312012"
      x2="2100.041"
      id="line570"
      y2="165.21744"
      y1="165.21744"
      stroke="#ffffff"
      stroke-width="4.86429453"
      stroke-linecap="round"
    />
    <rect
      x="-3245.7183"
      width="56.512764"
      ry="25.515131"
      id="rect1843"
      y="1993.8447"
      height="51.030441"
      rx="28.256283"
      transform="rotate(-90)"
      fill="#9a916c"
      stroke="none"
      stroke-width="0"
    />
    <rect
      x="-3245.7183"
      width="56.512764"
      ry="25.515131"
      id="rect1845"
      y="120.87915"
      height="51.030441"
      rx="28.256283"
      transform="rotate(-90)"
      fill="#9a916c"
      stroke="none"
      stroke-width="0"
    />
    <rect
      x="-274.41031"
      width="56.512764"
      ry="25.515131"
      id="rect1847"
      y="1993.8447"
      height="51.030441"
      rx="28.256283"
      transform="rotate(-90)"
      fill="#9a916c"
      stroke="none"
      stroke-width="0"
    />
    <rect
      x="3241.5339"
      width="57.596481"
      id="rect391"
      y="-1699.5817"
      height="132.78593"
      transform="rotate(90)"
      fill="#b4b4b4"
      stroke-width="13.51196861"
    />
    <rect
      x="3249.0039"
      width="50.140244"
      id="rect397"
      y="-565.44983"
      height="132.78593"
      transform="rotate(90)"
      fill="#b4b4b4"
      stroke-width="13.51196861"
    />
    <rect
      x="855.67664"
      width="150.50046"
      id="rect403"
      y="-2099.4753"
      height="2066.7332"
      transform="rotate(90)"
      fill="#b4b4b4"
      stroke-width="13.51196861"
    />
    <rect
      x="2492.6975"
      width="146.79228"
      id="rect409"
      y="-2099.4805"
      height="2066.7332"
      transform="rotate(90)"
      fill="#b4b4b4"
      stroke-width="13.51196861"
    />
    <polygon
      points="115.001,125.391 115.001,59.217 114.481,59.217 114.481,43.466 115.001,43.466 115.001,14.573 96.952,14.573 96.952,15.132 81.246,15.132 81.246,14.573 33.954,14.573 33.954,15.132 18.247,15.132 18.247,14.573 0.198,14.573 0.198,43.466 0.719,43.466 0.719,59.217 0.198,59.217 0.198,125.391 0.719,125.391 0.719,141.143 0.198,141.143 0.198,172.179 115.001,172.179 115.001,141.143 114.481,141.143 114.481,125.391 "
      id="polygon411"
      transform="matrix(-18.002431,0,0,-19.936477,2103.0521,3589.6629)"
      fill="#dcdcdc"
      stroke-width="0.7132287"
    />
    <path
      d="M 396.72743,3261.9671 H 1735.4965 L 1787.0374,3221.0973 H 2000.4562 C 2002.4725,3228.5932 2008.1612,3234.096 2015.1281,3234.096 2023.7514,3234.096 2030.7544,3225.7821 2030.7544,3215.5153 2030.7544,3207.2208 2026.1098,3200.4624 2019.8269,3198.0499 V 2975.8188 L 2057.3259,2918.2225 V 2347.7802 L 2019.8269,2292.0368 V 2098.7934 L 2057.3259,2043.0499 V 1414.9919 L 2019.8269,1359.2497 V 1166.005 L 2057.3259,1108.4087 V 539.8206 L 2019.8269,484.0784 V 278.5531 C 2026.1278,276.16 2030.7544,269.3822 2030.7544,261.0877 2030.7544,250.821 2023.7514,242.507 2015.1281,242.507 2008.1612,242.507 2002.4724,248.0306 2000.4562,255.5057 H 1955.7741 V 157.0201 H 173.35333 V 255.5057 H 131.78553 C 129.76933,248.0097 124.08053,242.4875 117.11353,242.4875 108.49053,242.4875 101.48743,250.8015 101.48743,261.0682 101.48743,268.6836 105.35803,275.1837 110.86673,278.0545 V 484.0382 L 73.36783,539.7803 V 1108.3684 L 110.86673,1165.9647 V 1359.2094 L 73.36783,1414.9515 V 2043.0304 L 110.86673,2098.7726 V 2292.0173 L 73.36783,2347.7594 V 2918.2225 L 110.86673,2975.8189 V 3198.5291 C 105.35803,3201.3999 101.48743,3207.8986 101.48743,3215.5153 101.48743,3225.7821 108.49053,3234.096 117.11353,3234.096 124.08053,3234.096 129.76933,3228.5738 131.78553,3221.0973 H 345.18633 Z"
      id="path413"
      fill="#282828"
      stroke-width="13.5119276"
    />
    <rect
      x="261.06705"
      width="2954.446"
      id="rect419"
      y="-2015.1212"
      height="1898.0143"
      transform="rotate(90)"
      fill="#0a0a0a"
      stroke-width="13.51196861"
    />
    <rect
      x="213.69669"
      width="186.12695"
      id="rect425"
      y="-1599.5908"
      height="1066.95"
      transform="rotate(90)"
      fill="#e6aa50"
      stroke-width="13.51196861"
    />
    <rect
      x="292.66348"
      width="139.35596"
      id="rect431"
      y="-1680.8269"
      height="1230.9883"
      transform="rotate(90)"
      stroke-width="13.51196861"
    />
    <rect
      x="536.08386"
      width="2623.7002"
      id="rect437"
      y="-1959.5979"
      height="1790.954"
      transform="rotate(90)"
      fill="#333333"
      stroke-width="13.51196861"
    />
    <circle
      cy="3379.4036"
      cx="1936.6259"
      id="connector0pin"
      r="25"
      fill="#ffffff"
      stroke="#e6aa50"
      stroke-width="13.88883686"
    />
    <circle
      cy="3479.4023"
      cx="1936.6259"
      id="connector1pin"
      r="25"
      fill="#ffffff"
      stroke="#e6aa50"
      stroke-width="15.28341389"
    />
    <circle
      cy="3379.4036"
      cx="1836.6261"
      id="connector2pin"
      r="25"
      fill="#ffffff"
      stroke="#e6aa50"
      stroke-width="15.28341389"
    />
    <circle
      cy="3479.4023"
      cx="1836.6261"
      id="connector3pin"
      r="25"
      fill="#ffffff"
      stroke="#e6aa50"
      stroke-width="15.28341389"
    />
    <circle
      cy="3379.4036"
      cx="1736.6266"
      id="connector4pin"
      r="25"
      fill="#ffffff"
      stroke="#e6aa50"
      stroke-width="15.28341389"
    />
    <circle
      cy="3479.4023"
      cx="1736.6266"
      id="connector5pin"
      r="25"
      fill="#ffffff"
      stroke="#e6aa50"
      stroke-width="15.28341389"
    />
    <circle
      cy="3379.4036"
      cx="1636.6268"
      id="connector6pin"
      r="25"
      fill="#ffffff"
      stroke="#e6aa50"
      stroke-width="15.28341389"
    />
    <circle
      cy="3479.4023"
      cx="1636.6268"
      id="connector7pin"
      r="25"
      fill="#ffffff"
      stroke="#e6aa50"
      stroke-width="13.88883686"
    />
    <circle
      cy="3379.4036"
      cx="1536.6273"
      id="connector8pin"
      r="25"
      fill="#ffffff"
      stroke="#e6aa50"
      stroke-width="15.28341389"
    />
    <circle
      cy="3479.4023"
      cx="1536.6273"
      id="connector9pin"
      r="25"
      fill="#ffffff"
      stroke="#e6aa50"
      stroke-width="15.28341389"
    />
    <circle
      cy="3379.4036"
      cx="1436.6276"
      id="connector10pin"
      r="25"
      fill="#ffffff"
      stroke="#e6aa50"
      stroke-width="15.28341389"
    />
    <circle
      cy="3479.4023"
      cx="1436.6276"
      id="connector11pin"
      r="25"
      fill="#ffffff"
      stroke="#e6aa50"
      stroke-width="15.28341389"
    />
    <circle
      cy="3379.4036"
      cx="1336.6279"
      id="connector12pin"
      r="25"
      fill="#ffffff"
      stroke="#e6aa50"
      stroke-width="15.28341389"
    />
    <circle
      cy="3479.4023"
      cx="1336.6279"
      id="connector13pin"
      r="25"
      fill="#ffffff"
      stroke="#e6aa50"
      stroke-width="15.28341389"
    />
    <circle
      cy="3379.4036"
      cx="1236.6283"
      id="connector14pin"
      r="25"
      fill="#ffffff"
      stroke="#e6aa50"
      stroke-width="15.28341389"
    />
    <circle
      cy="3479.4023"
      cx="1236.6283"
      id="connector15pin"
      r="25"
      fill="#ffffff"
      stroke="#e6aa50"
      stroke-width="15.28341389"
    />
    <circle
      cy="3379.4036"
      cx="1136.6288"
      id="connector16pin"
      r="25"
      fill="#ffffff"
      stroke="#e6aa50"
      stroke-width="15.28341389"
    />
    <circle
      cy="3479.4023"
      cx="1136.6288"
      id="connector17pin"
      r="25"
      fill="#ffffff"
      stroke="#e6aa50"
      stroke-width="15.28341389"
    />
    <circle
      cy="3379.4036"
      cx="1036.6318"
      id="connector18pin"
      r="25"
      fill="#ffffff"
      stroke="#e6aa50"
      stroke-width="15.28341389"
    />
    <circle
      cy="3479.4023"
      cx="1036.6318"
      id="connector19pin"
      r="25"
      fill="#ffffff"
      stroke="#e6aa50"
      stroke-width="15.28341389"
    />
    <circle
      cy="3379.4036"
      cx="936.63226"
      id="connector20pin"
      r="25"
      fill="#ffffff"
      stroke="#e6aa50"
      stroke-width="15.28341389"
    />
    <circle
      cy="3479.4023"
      cx="936.63226"
      id="connector21pin"
      r="25"
      fill="#ffffff"
      stroke="#e6aa50"
      stroke-width="15.28341389"
    />
    <circle
      cy="3379.4036"
      cx="836.63263"
      id="connector22pin"
      r="25"
      fill="#ffffff"
      stroke="#e6aa50"
      stroke-width="15.28341389"
    />
    <circle
      cy="3479.4023"
      cx="836.63263"
      id="connector23pin"
      r="25"
      fill="#ffffff"
      stroke="#e6aa50"
      stroke-width="15.28341389"
    />
    <circle
      cy="3379.4036"
      cx="736.633"
      id="connector24pin"
      r="25"
      fill="#ffffff"
      stroke="#e6aa50"
      stroke-width="15.28341389"
    />
    <circle
      cy="3479.4023"
      cx="736.633"
      id="connector25pin"
      r="25"
      fill="#ffffff"
      stroke="#e6aa50"
      stroke-width="15.28341389"
    />
    <circle
      cy="3379.4036"
      cx="636.63068"
      id="connector26pin"
      r="25"
      fill="#ffffff"
      stroke="#e6aa50"
      stroke-width="13.88883686"
    />
    <circle
      cy="3479.4023"
      cx="636.63068"
      id="connector27pin"
      r="25"
      fill="#ffffff"
      stroke="#e6aa50"
      stroke-width="15.28341389"
    />
    <circle
      cy="3379.4036"
      cx="536.63104"
      id="connector28pin"
      r="25"
      fill="#ffffff"
      stroke="#e6aa50"
      stroke-width="15.28341389"
    />
    <circle
      cy="3479.4023"
      cx="536.63104"
      id="connector29pin"
      r="25"
      fill="#ffffff"
      stroke="#e6aa50"
      stroke-width="15.28341389"
    />
    <circle
      cy="3379.4036"
      cx="436.6315"
      id="connector30pin"
      r="25"
      fill="#ffffff"
      stroke="#e6aa50"
      stroke-width="15.28341389"
    />
    <circle
      cy="3479.4023"
      cx="436.6315"
      id="connector31pin"
      r="25"
      fill="#ffffff"
      stroke="#e6aa50"
      stroke-width="15.28341389"
    />
    <circle
      cy="3379.4036"
      cx="336.63187"
      id="connector32pin"
      r="25"
      fill="#ffffff"
      stroke="#e6aa50"
      stroke-width="15.28341389"
    />
    <circle
      cy="3479.4023"
      cx="336.63187"
      id="connector33pin"
      r="25"
      fill="#ffffff"
      stroke="#e6aa50"
      stroke-width="15.28341389"
    />
    <circle
      cy="3379.4036"
      cx="236.63223"
      id="connector34pin"
      r="25"
      fill="#ffffff"
      stroke="#e6aa50"
      stroke-width="15.28341389"
    />
    <circle
      cy="3479.4023"
      cx="236.63223"
      id="connector35pin"
      r="25"
      fill="#ffffff"
      stroke="#e6aa50"
      stroke-width="15.28341389"
    />
  </g>
</svg>
