<?xml version='1.0' encoding='UTF-8' standalone='no'?>
<svg xmlns="http://www.w3.org/2000/svg"  version="1.1" width="3.0999999in" enable-background="new 0 0 154.08 37.908" xml:space="preserve" xmlns:xml="http://www.w3.org/XML/1998/namespace" viewBox="0 0 3100 759.52329" height="0.75952333in" id="Ebene_1" y="0px" gorn="0" x="0px">
    <metadata  id="metadata206">
        <rdf:RDF xmlns:rdf="http://www.w3.org/1999/02/22-rdf-syntax-ns#">
            <cc:Work xmlns:rdf="http://www.w3.org/1999/02/22-rdf-syntax-ns#" xmlns:cc="http://creativecommons.org/ns#" rdf:about="">
                <dc:format xmlns:dc="http://purl.org/dc/elements/1.1/">image/svg+xml</dc:format>
                <dc:type xmlns:dc="http://purl.org/dc/elements/1.1/" xmlns:rdf="http://www.w3.org/1999/02/22-rdf-syntax-ns#" rdf:resource="http://purl.org/dc/dcmitype/StillImage"/>
                <dc:title xmlns:dc="http://purl.org/dc/elements/1.1/"/>
            </cc:Work>
        </rdf:RDF>
    </metadata>
    <defs  id="defs204"/>
    <desc  id="desc2">
        <referenceFile >18650-battery-holder-alt_1_breadboard.svg</referenceFile>
    </desc>
    <g  id="breadboard" gorn="0.3">
        <path  d="M 41.437404,19.468738 C 41.437404,7.9791258 64.150156,0 84.097117,0 H 3057.3211 c 28.2442,0 42.6598,6.5351951 42.6598,19.468738 V 736.83877 c 0,10.27033 -17.5792,19.4605 -42.6598,19.4605 H 84.097117 c -23.110253,0 -42.659713,-7.74711 -42.659713,-19.46935 z" stroke-width="14.2175" fill="#1a1a1a" id="path8" gorn="0.3.0"/>
        <path  d="m 3052.8304,399.99997 2.7289,209.52709 c 0.182,14.02296 -8.0508,25.64136 -17.9014,25.64136 -9.8502,0 -17.8444,-11.6172 -17.8444,-25.64136 l -18.9431,-463.7395 c 0,-14.0968 -8.1077,-25.6414 -17.9012,-25.6414 -9.7938,0 -17.9014,11.5446 -17.9014,25.6414 l -18.9432,359.27248 c 0,14.09669 -8.0697,25.65949 -17.8444,25.65949 -9.8695,0 -17.8824,-11.5628 -17.8824,-25.65949 V 222.76613" stroke-width="18.5146" stroke="#c9c9c9" fill="none" id="path90" gorn="0.3.1"/>
        <g  transform="scale(-1)">
            <g >
                <rect  width="61.167503" stroke-width="14.2175" fill="#c9c9c9" id="rect92" height="285.65945" y="-535.08063" gorn="0.3.2.0.0" x="-157.21729"/>
            </g>
        </g>
        <path  d="m 211.07124,95.264273 c 0,-42.362893 36.2383,-76.943674 80.54637,-76.943674 H 2820.7586 c 44.3082,0 80.5464,34.580781 80.5464,76.943674 V 659.52536 c 0,42.30841 -36.2382,76.94367 -80.5464,76.94367 H 291.59852 c -44.30809,0 -80.54628,-34.63526 -80.54628,-76.94367 l 0.0153,-564.261087 v 0 z" stroke-width="14.2175" fill="#353535" id="path95" gorn="0.3.3"/>
        <path  d="M 876.43924,735.27395 H 297.54022 c -36.68215,0 -66.68328,-34.58082 -66.68328,-76.94229 V 93.942176 c 0,-42.307087 30.00113,-76.942285 66.68328,-76.942285 h 578.89902 z" stroke-width="29.0439" fill="#ce925d" id="path97" gorn="0.3.4"/>
        <path  d="m 2814.659,47.725991 c 33.34,0 75.8863,29.496086 75.8863,64.456669 v 161.50466 c 0,-34.99689 -42.5463,-89.84538 -75.8863,-89.84538 H 303.85502 c -33.35909,0 -75.88658,54.84849 -75.88658,89.84538 V 112.16447 c 0,-34.996893 42.52749,-64.456687 75.88658,-64.456687 H 2814.659 Z" enable-background="new    " stroke-width="14.2175" opacity="0.35" id="path99" gorn="0.3.5"/>
        <path  d="m 213.34434,382.15418 c 0,-160.85405 6.40281,-291.215115 14.34,-291.215115 7.9372,0 7.9372,582.412195 0,582.412195 -7.93719,0 -14.34,-130.38064 -14.34,-291.19708" stroke-width="14.2175" fill="#b2b2b2" id="path101" gorn="0.3.6"/>
        <path  d="m 218.70524,282.88081 c 5.24741,0 5.24741,215.19434 0,215.19434 h 0.15195 c 0,-13.2646 -11.2522,-24.01351 -25.15639,-24.01351 h -11.366 c -13.8663,0 -25.13769,-10.74879 -25.13769,-24.03029 V 331.03339 c 0,-13.21019 11.27139,-24.03158 25.13769,-24.03158 h 11.366 c 13.90419,0 25.15639,-10.74881 25.15639,-23.994 l -0.15195,-0.13959 v 0 z" stroke-width="14.2175" fill="#7c7c7c" id="path103" gorn="0.3.7"/>
        <path  d="m 289.19292,524.33223 c 0,-25.64139 29.17249,-46.43399 65.16448,-46.43399 H 2766.316 c 35.9353,0 65.1266,18.9832 65.1266,44.6428 v 139.9888 c 0,25.65952 -29.1725,48.27966 -65.1266,48.27966 H 354.3762 c -35.99179,0 -65.16428,-20.81075 -65.16428,-46.47028 V 524.33223 Z" enable-background="new    " stroke-width="14.2175" opacity="0.35" fill="#ffffff" id="path105" gorn="0.3.8"/>
        <g  font-family="Droid Sans" stroke-width="1" fill="#f9f9f9" id="text115" font-size="227.488" gorn="0.3.9">
            <text  id="tspan940" y="438.85526" gorn="0.3.9.0" x="355.63248">+       18650 battery      -</text>
        </g>
        <rect  width="100" stroke-width="1" id="connector0pin" height="100.00001" fill="#c9c9c9" y="350.07083" gorn="0.3.10" x="3000"/>
        <rect  width="100" stroke-width="1" height="100.00001" id="connector1pin" fill="#c9c9c9" y="350.07083" gorn="0.3.11" x="0"/>
    </g>
</svg>
