<?xml version='1.0' encoding='UTF-8'?>
<!DOCTYPE svg>
<!-- Creator: CorelDRAW 2018 (64-Bit) -->
<svg xmlns="http://www.w3.org/2000/svg" xml:space="preserve" image-rendering="optimizeQuality" clip-rule="evenodd" shape-rendering="geometricPrecision"  fill-rule="evenodd" height="39.9999mm" text-rendering="geometricPrecision" version="1.1" xmlns:xml="http://www.w3.org/XML/1998/namespace" width="74.522mm" viewBox="0 0 1681 902">
    <desc >
        <referenceFile >18650 holder icon.svg</referenceFile>
    </desc>
    <g gorn="0.1"  id="copper1">
        <metadata  id="CorelCorpID_0Corel-Layer"/>
        <path fill="#1A1A1A" gorn="0.1.1"  id="path8" d="M1681 879c0,14 -12,23 -23,23l-1634 0c-16,0 -23,-8 -23,-23l0 -856c0,-12 10,-23 23,-23l1634 0c13,0 23,9 23,23l0 856z"/>
        <path fill="black" gorn="0.1.2"  id="path26" d="M157 419c-18,0 -42,-17 -42,-37l0 -92c0,20 23,51 42,51l1380 0c18,0 42,-31 42,-51l0 92c0,20 -23,37 -42,37l-1380 0 0 0z" enable-background="new    " fill-opacity="0.349020"/>
        <path fill="black" gorn="0.1.3"  id="path62" d="M1519 862c18,0 42,-17 42,-37l0 -92c0,20 -23,51 -42,51l-1380 0c-18,0 -42,-31 -42,-51l0 92c0,20 23,37 42,37l1380 0z" enable-background="new    " fill-opacity="0.349020"/>
        <g gorn="0.1.4"  id="_1008309408">
            <g >
                <path fill="#353535" gorn="0.1.4.0.0"  id="path22" d="M124 404c0,24 20,44 44,44l1390 0c24,0 44,-20 44,-44l0 -322c0,-24 -20,-44 -44,-44l-1390 0c-24,0 -44,20 -44,44l0 322 0 0 0 0z"/>
                <path fill="#CE925D" gorn="0.1.4.0.1"  id="path24" d="M462 38l-303 0c-19,0 -35,20 -35,44l0 322c0,24 16,44 35,44l303 0 0 -409 0 0z"/>
                <path fill="white" gorn="0.1.4.0.2"  id="path54" d="M172 176c0,15 16,26 36,26l1325 0c20,0 36,-11 36,-25l0 -80c0,-15 -16,-28 -36,-28l-1325 0c-20,0 -36,12 -36,26l0 80 0 0z" enable-background="new    " fill-opacity="0.349020"/>
                <path fill="black" gorn="0.1.4.0.3"  id="path26_0" d="M1553 429c18,0 42,-17 42,-37l0 -92c0,20 -23,51 -42,51l-1380 0c-18,0 -42,-31 -42,-51l0 92c0,20 23,37 42,37l1380 0 0 0z" enable-background="new    " fill-opacity="0.349020"/>
            </g>
            <path fill="#B2B2B2" gorn="0.1.4.1"  id="path28" d="M118 232c0,92 4,166 8,166 4,0 4,-332 0,-332 -4,0 -8,74 -8,166z"/>
            <path fill="#7C7C7C" gorn="0.1.4.2"  id="path30" d="M119 289c3,0 3,-123 0,-123l0 0c0,8 -6,14 -14,14l-6 0c-8,0 -14,6 -14,14l0 68c0,8 6,14 14,14l6 0c8,0 14,6 14,14l0 0 0 0 0 0z"/>
        </g>
        <g gorn="0.1.5"  id="_1015035616">
            <g >
                <g >
                    <g >
                        <g gorn="0.1.5.0.0.0.0"  id="g92">
                            <path fill="#1A1A1A" gorn="0.1.5.0.0.0.0.0"  id="path94" d="M84 1l20 16c0,0 15,16 27,34 8,10 14,47 23,56 9,9 23,11 34,11 3,0 263,0 266,0 11,0 25,-2 34,-11 9,-9 16,-46 23,-56 13,-17 27,-34 27,-34l20 -16 -476 0 0 0z"/>
                            <path fill="white" gorn="0.1.5.0.0.0.0.1"  id="path96" d="M113 13l5 2c0,0 0,7 12,15 7,5 13,7 22,11 9,4 21,5 32,5 3,0 273,0 276,0 11,0 23,-1 32,-5 9,-4 15,-6 22,-11 12,-8 12,-15 12,-15l5 -2 -417 0z" enable-background="new    " fill-opacity="0.200000"/>
                        </g>
                    </g>
                </g>
            </g>
        </g>
        <g gorn="0.1.6"  id="_1015037536">
            <g >
                <g >
                    <g >
                        <g gorn="0.1.6.0.0.0.0"  id="g98">
                            <path fill="#1A1A1A" gorn="0.1.6.0.0.0.0.0"  id="path100" d="M1121 1l20 16c0,0 15,16 27,34 8,10 14,47 23,56 9,9 23,11 34,11 3,0 263,0 266,0 11,0 25,-2 34,-11 9,-9 16,-46 23,-56 13,-17 27,-34 27,-34l20 -16 -476 0 0 0z"/>
                            <path fill="white" gorn="0.1.6.0.0.0.0.1"  id="path102" d="M1151 13l5 2c0,0 0,7 12,15 7,5 13,7 22,11 9,4 21,5 32,5 3,0 273,0 276,0 11,0 23,-1 32,-5 9,-4 15,-6 22,-11 12,-8 12,-15 12,-15l5 -2 -417 0z" enable-background="new    " fill-opacity="0.200000"/>
                        </g>
                    </g>
                </g>
            </g>
        </g>
        <g gorn="0.1.7"  id="text4374">
            <path fill="#F9F9F9" gorn="0.1.7.0"  fill-rule="nonzero" id="tspan4376" d="M496 275l-11 0 0 -71c-3,3 -6,5 -11,8 -4,3 -8,4 -12,6l0 -11c6,-3 12,-6 16,-11 5,-4 8,-8 10,-12l7 0 0 92z"/>
            <path fill="#F9F9F9" gorn="0.1.7.1"  fill-rule="nonzero" id="1" d="M542 226c-5,-2 -8,-4 -10,-7 -2,-3 -3,-7 -3,-11 0,-7 2,-12 7,-17 5,-5 11,-7 19,-7 8,0 14,2 19,7 5,5 7,10 7,17 0,4 -1,8 -3,11 -2,3 -6,6 -10,7 6,2 10,5 13,9 3,4 4,9 4,15 0,8 -3,14 -8,20 -6,5 -13,8 -22,8 -9,0 -16,-3 -22,-8 -5,-5 -8,-12 -8,-20 0,-6 2,-11 5,-15 3,-4 7,-7 13,-8zm-2 -19c0,4 1,8 4,11 3,3 6,4 11,4 4,0 8,-1 11,-4 3,-3 4,-6 4,-10 0,-4 -1,-8 -4,-10 -3,-3 -6,-4 -11,-4 -4,0 -8,1 -11,4 -3,3 -4,6 -4,10zm-4 42c0,3 1,6 2,9 1,3 4,5 7,7 3,2 6,2 10,2 5,0 10,-2 13,-5 3,-3 5,-8 5,-13 0,-5 -2,-10 -5,-13 -4,-4 -8,-5 -13,-5 -5,0 -10,2 -13,5 -3,3 -5,8 -5,13z"/>
            <path fill="#F9F9F9" gorn="0.1.7.2"  fill-rule="nonzero" id="2" d="M653 207l-11 1c-1,-4 -2,-8 -4,-10 -3,-3 -7,-5 -11,-5 -4,0 -7,1 -10,3 -4,3 -6,6 -8,11 -2,5 -3,12 -3,21 3,-4 6,-7 10,-9 4,-2 8,-3 12,-3 7,0 14,3 19,8 5,5 8,13 8,21 0,6 -1,11 -4,16 -2,5 -6,9 -10,11 -4,3 -9,4 -15,4 -9,0 -17,-3 -23,-10 -6,-7 -9,-18 -9,-34 0,-18 3,-30 10,-38 6,-7 13,-10 23,-10 7,0 13,2 18,6 5,4 7,10 8,17zm-46 39c0,4 1,8 2,11 2,4 4,6 7,8 3,2 6,3 9,3 5,0 9,-2 12,-6 3,-4 5,-9 5,-16 0,-6 -2,-11 -5,-15 -3,-4 -8,-5 -13,-5 -5,0 -9,2 -13,5 -4,4 -5,8 -5,14z"/>
            <path fill="#F9F9F9" gorn="0.1.7.3"  fill-rule="nonzero" id="3" d="M666 251l12 -1c1,6 3,10 6,13 3,3 7,4 11,4 5,0 10,-2 14,-6 4,-4 6,-9 6,-16 0,-6 -2,-11 -5,-15 -4,-4 -8,-6 -14,-6 -4,0 -7,1 -10,2 -3,2 -5,4 -7,6l-11 -2 9 -47 45 0 0 11 -36 0 -5 25c5,-4 11,-6 17,-6 8,0 15,3 20,8 5,6 8,13 8,21 0,8 -2,15 -7,21 -6,7 -14,11 -24,11 -8,0 -15,-2 -20,-7 -5,-5 -8,-11 -9,-18z"/>
            <path fill="#F9F9F9" gorn="0.1.7.4"  fill-rule="nonzero" id="4" d="M737 230c0,-11 1,-19 3,-26 2,-7 6,-12 10,-15 4,-4 10,-5 16,-5 5,0 9,1 13,3 4,2 7,5 9,9 2,4 4,8 6,14 1,5 2,13 2,22 0,11 -1,19 -3,26 -2,7 -5,12 -10,15 -4,4 -10,5 -17,5 -9,0 -16,-3 -21,-9 -6,-8 -9,-20 -9,-37zm11 0c0,15 2,25 5,30 3,5 8,7 13,7 5,0 9,-2 13,-7 3,-5 5,-15 5,-30 0,-15 -2,-25 -5,-30 -3,-5 -8,-7 -13,-7 -5,0 -9,2 -12,7 -4,6 -6,16 -6,31z"/>
            <path fill="#F9F9F9" gorn="0.1.7.5"  fill-rule="nonzero" id="5" d="M856 275l-10 0 0 -91 11 0 0 33c5,-6 11,-9 18,-9 4,0 8,1 12,2 4,2 7,4 9,7 2,3 4,7 5,11 1,4 2,9 2,13 0,11 -3,20 -8,26 -6,6 -12,9 -20,9 -8,0 -14,-3 -18,-10l0 8zm0 -34c0,8 1,14 3,17 4,6 8,9 14,9 5,0 9,-2 13,-6 4,-4 5,-11 5,-19 0,-9 -2,-15 -5,-19 -3,-4 -8,-6 -12,-6 -5,0 -9,2 -13,6 -4,4 -5,10 -5,18z"/>
            <path fill="#F9F9F9" gorn="0.1.7.6"  fill-rule="nonzero" id="6" d="M960 267c-4,4 -8,6 -12,7 -4,1 -8,2 -12,2 -7,0 -13,-2 -17,-5 -4,-4 -6,-8 -6,-14 0,-3 1,-6 2,-9 1,-3 3,-5 6,-6 2,-2 5,-3 8,-4 2,-1 6,-1 10,-2 9,-1 16,-2 20,-4 0,-2 0,-3 0,-3 0,-5 -1,-8 -3,-10 -3,-3 -7,-4 -13,-4 -5,0 -9,1 -12,3 -3,2 -4,5 -6,10l-11 -2c1,-5 3,-8 5,-11 2,-3 6,-5 10,-7 4,-2 9,-2 15,-2 6,0 10,1 14,2 4,1 6,3 8,5 2,2 3,5 4,8 0,2 1,5 1,10l0 15c0,10 0,17 1,20 0,3 1,5 3,8l-12 0c-1,-2 -2,-5 -2,-8zm-1 -25c-4,2 -10,3 -18,4 -5,1 -8,1 -10,2 -2,1 -3,2 -4,4 -1,2 -2,3 -2,5 0,3 1,5 3,7 2,2 6,3 10,3 4,0 8,-1 12,-3 3,-2 6,-4 7,-8 1,-3 2,-6 2,-11l0 -4z"/>
            <path fill="#F9F9F9" gorn="0.1.7.7"  fill-rule="nonzero" id="7" d="M1012 265l2 10c-3,1 -6,1 -8,1 -4,0 -7,-1 -9,-2 -2,-1 -4,-3 -5,-5 -1,-2 -1,-7 -1,-13l0 -38 -8 0 0 -9 8 0 0 -16 11 -7 0 23 11 0 0 9 -11 0 0 39c0,3 0,5 1,6 0,1 1,2 2,2 1,1 2,1 4,1 1,0 3,0 5,0z"/>
            <path fill="#F9F9F9" gorn="0.1.7.8"  fill-rule="nonzero" id="8" d="M1047 265l2 10c-3,1 -6,1 -8,1 -4,0 -7,-1 -9,-2 -2,-1 -4,-3 -5,-5 -1,-2 -1,-7 -1,-13l0 -38 -8 0 0 -9 8 0 0 -16 11 -7 0 23 11 0 0 9 -11 0 0 39c0,3 0,5 1,6 0,1 1,2 2,2 1,1 2,1 4,1 1,0 3,0 5,0z"/>
            <path fill="#F9F9F9" gorn="0.1.7.9"  fill-rule="nonzero" id="9" d="M1103 254l12 2c-2,7 -5,12 -10,16 -5,4 -11,6 -19,6 -10,0 -17,-3 -23,-9 -6,-6 -8,-14 -8,-25 0,-11 3,-20 9,-26 6,-6 13,-9 22,-9 9,0 16,3 22,9 6,6 8,14 8,25 0,1 0,2 0,3l-49 0c0,7 2,13 6,17 4,4 8,6 14,6 4,0 8,-1 10,-3 3,-2 5,-6 7,-10zm-37 -18l37 0c0,-6 -2,-10 -4,-12 -4,-4 -8,-6 -14,-6 -5,0 -9,2 -13,5 -3,3 -5,8 -6,14z"/>
            <path fill="#F9F9F9" gorn="0.1.7.10"  fill-rule="nonzero" id="10" d="M1129 275l0 -66 10 0 0 10c3,-5 5,-8 7,-9 2,-2 5,-2 7,-2 4,0 8,1 12,4l-4 10c-3,-2 -5,-2 -8,-2 -2,0 -5,1 -7,2 -2,1 -3,4 -4,6 -1,4 -2,8 -2,13l0 35 -11 0z"/>
            <path fill="#F9F9F9" gorn="0.1.7.11"  fill-rule="nonzero" id="11" d="M1171 301l-1 -10c2,1 5,1 6,1 3,0 4,0 6,-1 2,-1 3,-2 4,-3 1,-1 2,-4 3,-8 0,-1 1,-2 1,-3l-25 -66 12 0 14 38c2,5 3,10 5,15 1,-5 3,-10 5,-15l14 -39 11 0 -25 67c-3,7 -5,12 -6,15 -2,4 -4,6 -7,8 -3,2 -6,3 -9,3 -2,0 -5,0 -7,-1z"/>
        </g>
        <g gorn="0.1.8"  id="_1009430736">
            <g >
                <path fill="#353535" gorn="0.1.8.0.0"  id="path22_1" d="M120 850c0,24 20,44 44,44l1390 0c24,0 44,-20 44,-44l0 -322c0,-24 -20,-44 -44,-44l-1390 0c-24,0 -44,20 -44,44l0 322 0 0 0 0z"/>
                <path fill="#CE925D" gorn="0.1.8.0.1"  id="path24_2" d="M458 485l-303 0c-19,0 -35,20 -35,44l0 322c0,24 16,44 35,44l303 0 0 -409 0 0z"/>
                <path fill="white" gorn="0.1.8.0.2"  id="path54_3" d="M167 622c0,15 16,26 36,26l1325 0c20,0 36,-11 36,-25l0 -80c0,-15 -16,-28 -36,-28l-1325 0c-20,0 -36,12 -36,26l0 80 0 0z" enable-background="new    " fill-opacity="0.349020"/>
                <path fill="black" gorn="0.1.8.0.3"  id="path26_4" d="M1549 875c18,0 42,-17 42,-37l0 -92c0,20 -23,51 -42,51l-1380 0c-18,0 -42,-31 -42,-51l0 92c0,20 23,37 42,37l1380 0 0 0z" enable-background="new    " fill-opacity="0.349020"/>
            </g>
            <path fill="#B2B2B2" gorn="0.1.8.1"  id="path28_5" d="M114 679c0,92 4,166 8,166 4,0 4,-332 0,-332 -4,0 -8,74 -8,166z"/>
            <path fill="#7C7C7C" gorn="0.1.8.2"  id="path30_6" d="M115 735c3,0 3,-123 0,-123l0 0c0,8 -6,14 -14,14l-6 0c-8,0 -14,6 -14,14l0 68c0,8 6,14 14,14l6 0c8,0 14,6 14,14l0 0 0 0 0 0z"/>
        </g>
        <g gorn="0.1.9"  id="text4374_7">
            <path fill="#F9F9F9" gorn="0.1.9.0"  fill-rule="nonzero" id="tspan4376_8" d="M491 733l-11 0 0 -71c-3,3 -6,5 -11,8 -4,3 -8,4 -12,6l0 -11c6,-3 12,-6 16,-11 5,-4 8,-8 10,-12l7 0 0 92z"/>
            <path fill="#F9F9F9" gorn="0.1.9.1"  fill-rule="nonzero" id="1" d="M537 684c-5,-2 -8,-4 -10,-7 -2,-3 -3,-7 -3,-11 0,-7 2,-12 7,-17 5,-5 11,-7 19,-7 8,0 14,2 19,7 5,5 7,10 7,17 0,4 -1,8 -3,11 -2,3 -6,6 -10,7 6,2 10,5 13,9 3,4 4,9 4,15 0,8 -3,14 -8,20 -6,5 -13,8 -22,8 -9,0 -16,-3 -22,-8 -5,-5 -8,-12 -8,-20 0,-6 2,-11 5,-15 3,-4 7,-7 13,-8zm-2 -19c0,4 1,8 4,11 3,3 6,4 11,4 4,0 8,-1 11,-4 3,-3 4,-6 4,-10 0,-4 -1,-8 -4,-10 -3,-3 -6,-4 -11,-4 -4,0 -8,1 -11,4 -3,3 -4,6 -4,10zm-4 42c0,3 1,6 2,9 1,3 4,5 7,7 3,2 6,2 10,2 5,0 10,-2 13,-5 3,-3 5,-8 5,-13 0,-5 -2,-10 -5,-13 -4,-4 -8,-5 -13,-5 -5,0 -10,2 -13,5 -3,3 -5,8 -5,13z"/>
            <path fill="#F9F9F9" gorn="0.1.9.2"  fill-rule="nonzero" id="2" d="M649 664l-11 1c-1,-4 -2,-8 -4,-10 -3,-3 -7,-5 -11,-5 -4,0 -7,1 -10,3 -4,3 -6,6 -8,11 -2,5 -3,12 -3,21 3,-4 6,-7 10,-9 4,-2 8,-3 12,-3 7,0 14,3 19,8 5,5 8,13 8,21 0,6 -1,11 -4,16 -2,5 -6,9 -10,11 -4,3 -9,4 -15,4 -9,0 -17,-3 -23,-10 -6,-7 -9,-18 -9,-34 0,-18 3,-30 10,-38 6,-7 13,-10 23,-10 7,0 13,2 18,6 5,4 7,10 8,17zm-46 39c0,4 1,8 2,11 2,4 4,6 7,8 3,2 6,3 9,3 5,0 9,-2 12,-6 3,-4 5,-9 5,-16 0,-6 -2,-11 -5,-15 -3,-4 -8,-5 -13,-5 -5,0 -9,2 -13,5 -4,4 -5,8 -5,14z"/>
            <path fill="#F9F9F9" gorn="0.1.9.3"  fill-rule="nonzero" id="3" d="M662 709l12 -1c1,6 3,10 6,13 3,3 7,4 11,4 5,0 10,-2 14,-6 4,-4 6,-9 6,-16 0,-6 -2,-11 -5,-15 -4,-4 -8,-6 -14,-6 -4,0 -7,1 -10,2 -3,2 -5,4 -7,6l-11 -2 9 -47 45 0 0 11 -36 0 -5 25c5,-4 11,-6 17,-6 8,0 15,3 20,8 5,6 8,13 8,21 0,8 -2,15 -7,21 -6,7 -14,11 -24,11 -8,0 -15,-2 -20,-7 -5,-5 -8,-11 -9,-18z"/>
            <path fill="#F9F9F9" gorn="0.1.9.4"  fill-rule="nonzero" id="4" d="M732 688c0,-11 1,-19 3,-26 2,-7 6,-12 10,-15 4,-4 10,-5 16,-5 5,0 9,1 13,3 4,2 7,5 9,9 2,4 4,8 6,14 1,5 2,13 2,22 0,11 -1,19 -3,26 -2,7 -5,12 -10,15 -4,4 -10,5 -17,5 -9,0 -16,-3 -21,-9 -6,-8 -9,-20 -9,-37zm11 0c0,15 2,25 5,30 3,5 8,7 13,7 5,0 9,-2 13,-7 3,-5 5,-15 5,-30 0,-15 -2,-25 -5,-30 -3,-5 -8,-7 -13,-7 -5,0 -9,2 -12,7 -4,6 -6,16 -6,31z"/>
            <path fill="#F9F9F9" gorn="0.1.9.5"  fill-rule="nonzero" id="5" d="M852 733l-10 0 0 -91 11 0 0 33c5,-6 11,-9 18,-9 4,0 8,1 12,2 4,2 7,4 9,7 2,3 4,7 5,11 1,4 2,9 2,13 0,11 -3,20 -8,26 -6,6 -12,9 -20,9 -8,0 -14,-3 -18,-10l0 8zm0 -34c0,8 1,14 3,17 4,6 8,9 14,9 5,0 9,-2 13,-6 4,-4 5,-11 5,-19 0,-9 -2,-15 -5,-19 -3,-4 -8,-6 -12,-6 -5,0 -9,2 -13,6 -4,4 -5,10 -5,18z"/>
            <path fill="#F9F9F9" gorn="0.1.9.6"  fill-rule="nonzero" id="6" d="M956 725c-4,4 -8,6 -12,7 -4,1 -8,2 -12,2 -7,0 -13,-2 -17,-5 -4,-4 -6,-8 -6,-14 0,-3 1,-6 2,-9 1,-3 3,-5 6,-6 2,-2 5,-3 8,-4 2,-1 6,-1 10,-2 9,-1 16,-2 20,-4 0,-2 0,-3 0,-3 0,-5 -1,-8 -3,-10 -3,-3 -7,-4 -13,-4 -5,0 -9,1 -12,3 -3,2 -4,5 -6,10l-11 -2c1,-5 3,-8 5,-11 2,-3 6,-5 10,-7 4,-2 9,-2 15,-2 6,0 10,1 14,2 4,1 6,3 8,5 2,2 3,5 4,8 0,2 1,5 1,10l0 15c0,10 0,17 1,20 0,3 1,5 3,8l-12 0c-1,-2 -2,-5 -2,-8zm-1 -25c-4,2 -10,3 -18,4 -5,1 -8,1 -10,2 -2,1 -3,2 -4,4 -1,2 -2,3 -2,5 0,3 1,5 3,7 2,2 6,3 10,3 4,0 8,-1 12,-3 3,-2 6,-4 7,-8 1,-3 2,-6 2,-11l0 -4z"/>
            <path fill="#F9F9F9" gorn="0.1.9.7"  fill-rule="nonzero" id="7" d="M1007 723l2 10c-3,1 -6,1 -8,1 -4,0 -7,-1 -9,-2 -2,-1 -4,-3 -5,-5 -1,-2 -1,-7 -1,-13l0 -38 -8 0 0 -9 8 0 0 -16 11 -7 0 23 11 0 0 9 -11 0 0 39c0,3 0,5 1,6 0,1 1,2 2,2 1,1 2,1 4,1 1,0 3,0 5,0z"/>
            <path fill="#F9F9F9" gorn="0.1.9.8"  fill-rule="nonzero" id="8" d="M1043 723l2 10c-3,1 -6,1 -8,1 -4,0 -7,-1 -9,-2 -2,-1 -4,-3 -5,-5 -1,-2 -1,-7 -1,-13l0 -38 -8 0 0 -9 8 0 0 -16 11 -7 0 23 11 0 0 9 -11 0 0 39c0,3 0,5 1,6 0,1 1,2 2,2 1,1 2,1 4,1 1,0 3,0 5,0z"/>
            <path fill="#F9F9F9" gorn="0.1.9.9"  fill-rule="nonzero" id="9" d="M1099 712l12 2c-2,7 -5,12 -10,16 -5,4 -11,6 -19,6 -10,0 -17,-3 -23,-9 -6,-6 -8,-14 -8,-25 0,-11 3,-20 9,-26 6,-6 13,-9 22,-9 9,0 16,3 22,9 6,6 8,14 8,25 0,1 0,2 0,3l-49 0c0,7 2,13 6,17 4,4 8,6 14,6 4,0 8,-1 10,-3 3,-2 5,-6 7,-10zm-37 -18l37 0c0,-6 -2,-10 -4,-12 -4,-4 -8,-6 -14,-6 -5,0 -9,2 -13,5 -3,3 -5,8 -6,14z"/>
            <path fill="#F9F9F9" gorn="0.1.9.10"  fill-rule="nonzero" id="10" d="M1125 733l0 -66 10 0 0 10c3,-5 5,-8 7,-9 2,-2 5,-2 7,-2 4,0 8,1 12,4l-4 10c-3,-2 -5,-2 -8,-2 -2,0 -5,1 -7,2 -2,1 -3,4 -4,6 -1,4 -2,8 -2,13l0 35 -11 0z"/>
            <path fill="#F9F9F9" gorn="0.1.9.11"  fill-rule="nonzero" id="11" d="M1167 758l-1 -10c2,1 5,1 6,1 3,0 4,0 6,-1 2,-1 3,-2 4,-3 1,-1 2,-4 3,-8 0,-1 1,-2 1,-3l-25 -66 12 0 14 38c2,5 3,10 5,15 1,-5 3,-10 5,-15l14 -39 11 0 -25 67c-3,7 -5,12 -6,15 -2,4 -4,6 -7,8 -3,2 -6,3 -9,3 -2,0 -5,0 -7,-1z"/>
        </g>
        <g gorn="0.1.10"  id="_1012258960">
            <g >
                <g >
                    <g >
                        <g gorn="0.1.10.0.0.0.0"  id="g110">
                            <path fill="#1A1A1A" gorn="0.1.10.0.0.0.0.0"  id="path112" d="M1121 899l20 -16c0,0 15,-16 27,-34 8,-10 14,-47 23,-56 9,-9 23,-11 34,-11 3,0 263,0 266,0 11,0 25,2 34,11 9,9 16,46 23,56 13,17 27,34 27,34l20 16 -476 0 0 0z"/>
                            <path fill="black" gorn="0.1.10.0.0.0.0.1"  id="path114" d="M1151 887l5 -2c0,0 0,-7 12,-15 7,-5 13,-7 22,-11 9,-4 21,-5 32,-5 3,0 273,0 276,0 11,0 23,1 32,5 9,4 15,6 22,11 12,8 12,15 12,15l5 2 -417 0z"/>
                        </g>
                    </g>
                </g>
            </g>
        </g>
        <g gorn="0.1.11"  id="_1009514992">
            <g >
                <g >
                    <g >
                        <g gorn="0.1.11.0.0.0.0"  id="g104">
                            <path fill="#1A1A1A" gorn="0.1.11.0.0.0.0.0"  id="path106" d="M84 899l20 -16c0,0 15,-16 27,-34 8,-10 14,-47 23,-56 9,-9 23,-11 34,-11 3,0 263,0 266,0 11,0 25,2 34,11 9,9 16,46 23,56 13,17 27,34 27,34l20 16 -476 0 0 0z"/>
                            <path fill="black" gorn="0.1.11.0.0.0.0.1"  id="path108" d="M113 887l5 -2c0,0 0,-7 12,-15 7,-5 13,-7 22,-11 9,-4 21,-5 32,-5 3,0 273,0 276,0 11,0 23,1 32,5 9,4 15,6 22,11 12,8 12,15 12,15l5 2 -417 0 0 0z"/>
                        </g>
                    </g>
                </g>
            </g>
        </g>
        <rect fill="#B3B3B3"  y="122" height="208" width="59" x="26"/>
        <rect fill="#B3B3B3"  y="585" height="208" width="59" x="21"/>
        <rect fill="#B3B3B3"  y="122" height="208" width="59" x="1611"/>
        <rect fill="#B3B3B3"  y="585" height="208" width="59" x="1606"/>
    </g>
</svg>
