<?xml version='1.0' encoding='UTF-8' standalone='no'?>
<svg xmlns="http://www.w3.org/2000/svg" viewBox="0 0 2900.0003 2374.9998" width="2.9000001in" height="2.375in" y="0px"  version="1.1" gorn="0" id="Layer_1" x="0px">
    <desc  id="desc962">
        <referenceFile >svg.breadboard.batterypack_2x18650_leg.svg</referenceFile>
    </desc>
    <metadata  id="metadata124">
        <rdf:RDF xmlns:rdf="http://www.w3.org/1999/02/22-rdf-syntax-ns#">
            <cc:Work xmlns:rdf="http://www.w3.org/1999/02/22-rdf-syntax-ns#" rdf:about="" xmlns:cc="http://creativecommons.org/ns#">
                <dc:format xmlns:dc="http://purl.org/dc/elements/1.1/">image/svg+xml</dc:format>
                <dc:type rdf:resource="http://purl.org/dc/dcmitype/StillImage" xmlns:dc="http://purl.org/dc/elements/1.1/" xmlns:rdf="http://www.w3.org/1999/02/22-rdf-syntax-ns#"/>
                <dc:title xmlns:dc="http://purl.org/dc/elements/1.1/"/>
            </cc:Work>
        </rdf:RDF>
    </metadata>
    <defs  id="defs122"/>
    <g  gorn="0.3" id="breadboard">
        <rect width="17.356926" height="54.003651" y="585.00348"  stroke-width="13.5736" gorn="0.3.0" fill="#8c8c8c" id="rect968" x="2802.6235"/>
        <rect width="17.356926" height="54.003651" y="818.07642"  stroke-width="13.5736" gorn="0.3.1" fill="#8c8c8c" id="rect4957" x="2802.6235"/>
        <line x2="2955.5251" y2="844.36035"  stroke-width="40.7208" x1="2880.3604" stroke="#000000" gorn="0.3.2" style="stroke-linecap:round" fill="none" id="connector0leg" y1="844.36035"/>
        <line x2="2956.0217" y2="609.75787"  stroke-width="40.7208" x1="2880.8569" stroke="#ff0000" gorn="0.3.3" style="stroke-linecap:round" fill="none" id="connector1leg" y1="609.75787"/>
        <path d="m 2802.0154,2312.9398 c 0,36.0656 -20.8109,61.1132 -39.0877,61.1132 H 38.65585 c -25.879184,0 -39.08779511,-20.5157 -39.08779511,-61.1132 V 61.086052 C -0.43194511,28.846959 15.675285,-7.517642e-6 38.65585,-7.517642e-6 H 2762.9277 c 21.1752,0 39.0877,24.315003517642 39.0877,61.113214517642 z"  stroke-width="16.6659" gorn="0.3.4" fill="#1a1a1a" id="path8"/>
        <path d="M 40.287402,1118.2714 V 172.46961 c 0,-13.95095 7.37668,-25.50773 16.402291,-25.50773 9.025598,0 16.350212,11.55678 16.350212,25.50773 l 17.356933,461.31713 c 0,14.02293 7.428762,25.50767 16.402292,25.50767 8.97353,0 16.40229,-11.48474 16.40229,-25.50767 l 17.35693,-357.39612 c 0,-14.02295 7.39403,-25.52571 16.35021,-25.52571 9.04298,0 16.38494,11.50276 16.38494,25.52571 v 280.81895"  stroke-width="17.6761" stroke="#c9c9c9" gorn="0.3.5" fill="none" id="path10"/>
        <path d="m 2750.0141,244.99651 v 341.51898 c 0,14.00496 11.0909,25.48978 24.6119,25.48978 h 27.8407"  stroke-width="17.6761" stroke="#c9c9c9" gorn="0.3.6" fill="none" id="path14"/>
        <rect width="65.765396" height="284.11301" y="1017.2305"  stroke-width="13.5736" gorn="0.3.7" fill="#c9c9c9" id="rect16" x="31.938887"/>
        <rect width="56.045509" height="284.16702" y="246.5266"  stroke-width="13.5736" gorn="0.3.8" fill="#c9c9c9" id="rect18" x="2695.9307"/>
        <path d="m 2646.5863,684.04631 c 0,42.14085 -33.2037,76.54119 -73.8016,76.54119 H 255.42653 c -40.59786,0 -73.80166,-34.40034 -73.80166,-76.54119 V 122.7323 c 0,-42.086847 33.2038,-76.541179 73.80166,-76.541179 H 2572.8021 c 40.5978,0 73.8015,34.454332 73.8015,76.541179 l -0.013,561.31401 v 0 z"  stroke-width="13.5736" gorn="0.3.9" fill="#353535" id="path22"/>
        <path d="m 2087,47.3792 h 505.8177 c 32.0513,0 58.265,34.40033 58.265,76.54118 V 685.3604 c 0,42.08685 -26.2137,76.54118 -58.265,76.54118 H 2087 Z"  stroke-width="13.5736" gorn="0.3.10" fill="#ce925d" id="path24"/>
        <path d="m 261.01546,731.33552 c -30.54819,0 -69.53185,-29.342 -69.53185,-64.12035 V 506.55429 c 0,34.81435 38.98366,89.37605 69.53185,89.37605 H 2561.572 c 30.5657,0 69.532,-54.5617 69.532,-89.37605 v 160.67889 c 0,34.81435 -38.9663,64.12033 -69.532,64.12033 H 261.01546 Z" enable-background="new    "  stroke-width="13.5736" gorn="0.3.11" style="opacity:0.35;" id="path26"/>
        <path d="m 2644.5035,398.65498 c 0,160.01284 -5.8666,289.69362 -13.1392,289.69362 -7.2726,0 -7.2726,-579.36923 0,-579.36923 7.2726,0 13.1392,129.69878 13.1392,289.67561"  stroke-width="13.5736" gorn="0.3.12" fill="#b2b2b2" id="path28"/>
        <path d="m 2639.5915,497.40968 c -4.8079,0 -4.8079,-214.0705 0,-214.0705 l -0.1393,0.0181 c 0,13.1949 10.3101,23.88763 23.05,23.88763 h 10.4142 c 12.7053,0 23.0327,10.69272 23.0327,23.90562 v 118.37601 c 0,13.14089 -10.3274,23.90561 -23.0327,23.90561 h -10.4142 c -12.7399,0 -23.05,10.69272 -23.05,23.86962 l 0.1393,0.10833 v 0 z"  stroke-width="13.5736" gorn="0.3.13" fill="#7c7c7c" id="path30"/>
        <path d="m 2575.0063,257.21941 c 0,25.50773 -26.7296,46.19113 -59.7078,46.19113 H 305.31034 c -32.92609,0 -59.67313,-18.88328 -59.67313,-44.40901 V 119.7441 c 0,-25.525727 26.72968,-48.027252 59.67313,-48.027252 H 2515.2812 c 32.9781,0 59.7077,20.701402 59.7077,46.227132 v 139.27543 z" enable-background="new    "  stroke-width="13.5736" gorn="0.3.14" style="opacity:0.35;" fill="#ffffff" id="path54"/>
        <path d="m 147.08459,1458.2248 c 0,42.0868 33.18644,76.5411 73.80165,76.5411 H 2538.2097 c 40.5978,0 73.8017,-34.4543 73.8017,-76.5411 V 896.85673 c 0,-42.08686 -33.2039,-76.54119 -73.8017,-76.54119 H 220.88624 c -40.61521,0 -73.80165,34.45433 -73.80165,76.54119 z"  stroke-width="13.5736" gorn="0.3.15" fill="#353535" id="path58"/>
        <path d="M 711.16732,820.36955 H 205.3496 c -32.06495,0 -58.26501,34.45432 -58.26501,76.54118 v 561.36807 c 0,42.0868 26.20006,76.5411 58.26501,76.5411 h 505.81772 z"  stroke-width="13.5736" gorn="0.3.16" fill="#ce925d" id="path60"/>
        <path d="m 2532.6381,1505.5319 c 30.5481,0 69.5318,-29.396 69.5318,-64.1383 v -160.6789 c 0,34.8144 -38.9837,89.3761 -69.5318,89.3761 H 232.06411 c -30.5482,0 -69.53186,-54.5617 -69.53186,-89.3761 v 160.6789 c 0,34.8144 38.98366,64.1383 69.53186,64.1383 z" enable-background="new    "  stroke-width="13.5736" gorn="0.3.17" style="opacity:0.35;" id="path62"/>
        <path d="m 149.15006,1172.8334 c 0,160.0129 5.90136,289.6936 13.17391,289.6936 7.27255,0 7.27255,-579.36921 0,-579.36921 -7.27255,0 -13.17391,129.69881 -13.17391,289.67561"  stroke-width="13.5736" gorn="0.3.18" fill="#b2b2b2" id="path64"/>
        <path d="m 154.06207,1271.6061 c 4.82522,0 4.82522,-214.0705 0,-214.0705 l 0.1389,0.018 c 0,13.1949 -10.31002,23.8876 -22.99794,23.8876 h -10.46622 c -12.6532,0 -23.032646,10.7467 -23.032646,23.9056 v 118.394 c 0,13.1589 10.379446,23.9056 23.032646,23.9056 h 10.46622 c 12.68792,0 22.99794,10.6927 22.99794,23.9056 l -0.1389,0.054 v 0 z"  stroke-width="13.5736" gorn="0.3.19" fill="#7c7c7c" id="path66"/>
        <path d="m 218.66456,1031.3798 c 0,25.5618 26.72966,46.1912 59.67311,46.1912 H 2488.3259 c 32.9261,0 59.6731,-18.8833 59.6731,-44.409 V 893.90452 c 0,-25.52572 -26.747,-48.02725 -59.6731,-48.02725 H 278.37238 c -32.92609,0 -59.67311,20.7014 -59.67311,46.22713 l -0.0345,139.2754 v 0 z" enable-background="new    "  stroke-width="13.5736" gorn="0.3.20" style="opacity:0.35;" fill="#ffffff" id="path90"/>
        <g transform="translate(5.3751219,-246.00007)" >
            <g >
                <g >
                    <g >
                        <g >
                            <g >
                                <g >
                                    <g  gorn="0.3.21.0.0.0.0.0.0.0" id="batt">
                                        <path d="m 2646.5863,2483.8552 c 0,42.1408 -33.2037,76.5412 -73.8016,76.5412 H 255.42653 c -40.59786,0 -73.80166,-34.4004 -73.80166,-76.5412 v -561.314 c 0,-42.0869 33.2038,-76.5412 73.80166,-76.5412 H 2572.8021 c 40.5978,0 73.8015,34.4543 73.8015,76.5412 l -0.013,561.314 v 0 z"  stroke-width="13.5736" gorn="0.3.21.0.0.0.0.0.0.0.0" fill="#353535" id="path4918"/>
                                        <path d="m 2087,1847.1881 h 505.8177 c 32.0513,0 58.265,34.4003 58.265,76.5411 v 561.4401 c 0,42.0868 -26.2137,76.5411 -58.265,76.5411 H 2087 Z"  stroke-width="13.5736" gorn="0.3.21.0.0.0.0.0.0.0.1" fill="#ce925d" id="path4920"/>
                                        <path d="m 261.01546,2531.1444 c -30.54819,0 -69.53185,-29.342 -69.53185,-64.1204 v -160.6608 c 0,34.8143 38.98366,89.376 69.53185,89.376 H 2561.572 c 30.5657,0 69.532,-54.5617 69.532,-89.376 v 160.6788 c 0,34.8144 -38.9663,64.1204 -69.532,64.1204 H 261.01546 Z" enable-background="new    "  stroke-width="13.5736" gorn="0.3.21.0.0.0.0.0.0.0.2" style="opacity:0.35;" id="path4922"/>
                                        <path d="m 2644.5035,2198.4638 c 0,160.0129 -5.8666,289.6937 -13.1392,289.6937 -7.2726,0 -7.2726,-579.3693 0,-579.3693 7.2726,0 13.1392,129.6988 13.1392,289.6756"  stroke-width="13.5736" gorn="0.3.21.0.0.0.0.0.0.0.3" fill="#b2b2b2" id="path4924"/>
                                        <path d="m 2639.5915,2297.2185 c -4.8079,0 -4.8079,-214.0705 0,-214.0705 l -0.1393,0.018 c 0,13.1949 10.3101,23.8877 23.05,23.8877 h 10.4142 c 12.7053,0 23.0327,10.6927 23.0327,23.9056 v 118.376 c 0,13.1409 -10.3274,23.9056 -23.0327,23.9056 h -10.4142 c -12.7399,0 -23.05,10.6927 -23.05,23.8696 l 0.1393,0.1084 v 0 z"  stroke-width="13.5736" gorn="0.3.21.0.0.0.0.0.0.0.4" fill="#7c7c7c" id="path4926"/>
                                        <path d="m 2575.0063,2057.0283 c 0,25.5077 -26.7296,46.1911 -59.7078,46.1911 H 305.31034 c -32.92609,0 -59.67313,-18.8833 -59.67313,-44.409 V 1919.553 c 0,-25.5258 26.72968,-48.0273 59.67313,-48.0273 H 2515.2812 c 32.9781,0 59.7077,20.7014 59.7077,46.2271 v 139.2755 z" enable-background="new    "  stroke-width="13.5736" gorn="0.3.21.0.0.0.0.0.0.0.5" style="opacity:0.35;" fill="#ffffff" id="path4928"/>
                                        <g transform="matrix(-13.265936,0,0,-13.888387,2299.4176,2522.8661)" >
                                            <g >
                                                <g >
                                                    <g >
                                                        <g >
                                                            <g >
                                                                <g >
                                                                    <g font-size="25.6009" fill-opacity="1" stroke-opacity="1" xml:space="preserve"  stroke-width="0.8" stroke="none" gorn="0.3.21.0.0.0.0.0.0.0.6.0.0.0.0.0.0.0" xmlns:xml="http://www.w3.org/XML/1998/namespace" fill="#000000" id="g4934">
                                                                        <g  gorn="0.3.21.0.0.0.0.0.0.0.6.0.0.0.0.0.0.0.0" style="font-style:normal;font-variant:normal;font-weight:bold;font-stretch:normal;font-size:16.0005px;font-family:Droid Sans;-inkscape-font-specification:'Droid Sans, Bold';font-variant-ligatures:normal;font-variant-caps:normal;font-variant-numeric:normal;font-variant-east-asian:normal;fill:#f9f9f9" id="text4932">
                                                                            <text y="30.097544"  gorn="0.3.21.0.0.0.0.0.0.0.6.0.0.0.0.0.0.0.0.0" id="tspan4930" x="-10.484877">+     18650 battery     -</text>
                                                                        </g>
                                                                    </g>
                                                                </g>
                                                            </g>
                                                        </g>
                                                    </g>
                                                </g>
                                            </g>
                                        </g>
                                    </g>
                                </g>
                            </g>
                        </g>
                    </g>
                </g>
            </g>
        </g>
        <g transform="matrix(17.356928,0,0,18.001219,-0.43194511,-7.517642e-6)" >
            <g >
                <g >
                    <g >
                        <g >
                            <g >
                                <g >
                                    <g  gorn="0.3.22.0.0.0.0.0.0.0" id="g999">
                                        <g  gorn="0.3.22.0.0.0.0.0.0.0.0" id="g997">
                                            <g  gorn="0.3.22.0.0.0.0.0.0.0.0.0" id="g995">
                                                <g  gorn="0.3.22.0.0.0.0.0.0.0.0.0.0" id="g993">
                                                    <g  gorn="0.3.22.0.0.0.0.0.0.0.0.0.0.0" id="g92">
                                                        <path d="m 8.053,0.143 1.96,1.522 c 0,0 1.398,1.583 2.616,3.271 0.726,1.006 1.334,4.549 2.23,5.447 0.899,0.896 2.182,1.09 3.271,1.09 0.303,0 25.249,0 25.552,0 1.09,0 2.37,-0.19 3.27,-1.09 C 47.85,9.485 48.461,5.942 49.184,4.936 50.401,3.248 51.8,1.665 51.8,1.665 l 1.96,-1.522 z"  gorn="0.3.22.0.0.0.0.0.0.0.0.0.0.0.0" style="fill:#1a1a1a" id="path94"/>
                                                        <path d="m 10.883,1.292 0.511,0.19 c 0,0 0,0.707 1.136,1.459 0.681,0.449 1.246,0.645 2.085,1.047 0.84,0.4 2.035,0.486 3.056,0.486 0.282,0 26.191,0 26.478,0 1.021,0 2.213,-0.086 3.052,-0.486 0.841,-0.402 1.408,-0.598 2.085,-1.047 1.14,-0.752 1.139,-1.459 1.139,-1.459 l 0.501,-0.188 z" enable-background="new    "  gorn="0.3.22.0.0.0.0.0.0.0.0.0.0.0.1" style="opacity:0.2;fill:#ffffff" id="path96"/>
                                                    </g>
                                                </g>
                                            </g>
                                        </g>
                                    </g>
                                </g>
                            </g>
                        </g>
                    </g>
                </g>
            </g>
        </g>
        <g transform="matrix(17.356928,0,0,18.001219,-0.43194511,-7.517642e-6)" >
            <g >
                <g >
                    <g >
                        <g >
                            <g >
                                <g >
                                    <g  gorn="0.3.23.0.0.0.0.0.0.0" id="g1010">
                                        <g  gorn="0.3.23.0.0.0.0.0.0.0.0" id="g1008">
                                            <g  gorn="0.3.23.0.0.0.0.0.0.0.0.0" id="g1006">
                                                <g  gorn="0.3.23.0.0.0.0.0.0.0.0.0.0" id="g1004">
                                                    <g  gorn="0.3.23.0.0.0.0.0.0.0.0.0.0.0" id="g98">
                                                        <path d="m 107.719,0.143 1.96,1.522 c 0,0 1.398,1.583 2.616,3.271 0.726,1.006 1.335,4.549 2.23,5.447 0.898,0.896 2.182,1.09 3.271,1.09 0.304,0 25.249,0 25.552,0 1.09,0 2.369,-0.19 3.271,-1.09 0.897,-0.898 1.508,-4.441 2.231,-5.447 1.217,-1.688 2.615,-3.271 2.615,-3.271 l 1.961,-1.522 z"  gorn="0.3.23.0.0.0.0.0.0.0.0.0.0.0.0" style="fill:#1a1a1a" id="path100"/>
                                                        <path d="m 110.549,1.292 0.511,0.19 c 0,0 0,0.707 1.136,1.459 0.681,0.449 1.245,0.645 2.085,1.047 0.843,0.4 2.035,0.486 3.056,0.486 0.282,0 26.192,0 26.479,0 1.021,0 2.213,-0.086 3.053,-0.486 0.841,-0.402 1.407,-0.598 2.087,-1.047 1.138,-0.752 1.137,-1.459 1.137,-1.459 l 0.501,-0.188 z" enable-background="new    "  gorn="0.3.23.0.0.0.0.0.0.0.0.0.0.0.1" style="opacity:0.2;fill:#ffffff" id="path102"/>
                                                    </g>
                                                </g>
                                            </g>
                                        </g>
                                    </g>
                                </g>
                            </g>
                        </g>
                    </g>
                </g>
            </g>
        </g>
        <g transform="matrix(17.356928,0,0,18.001219,-0.43194511,800.30949)" >
            <g >
                <g >
                    <g >
                        <g >
                            <g >
                                <g >
                                    <g  gorn="0.3.24.0.0.0.0.0.0.0" id="g1021">
                                        <g  gorn="0.3.24.0.0.0.0.0.0.0.0" id="g1019">
                                            <g  gorn="0.3.24.0.0.0.0.0.0.0.0.0" id="g1017">
                                                <g  gorn="0.3.24.0.0.0.0.0.0.0.0.0.0" id="g1015">
                                                    <g  gorn="0.3.24.0.0.0.0.0.0.0.0.0.0.0" id="g104">
                                                        <path d="m 8.053,87.143 1.96,-1.525 c 0,0 1.398,-1.582 2.616,-3.269 0.726,-1.006 1.334,-4.549 2.23,-5.448 0.899,-0.898 2.182,-1.09 3.271,-1.09 0.303,0 25.249,0 25.552,0 1.09,0 2.37,0.188 3.27,1.09 0.898,0.899 1.509,4.442 2.232,5.448 1.217,1.687 2.616,3.269 2.616,3.269 l 1.96,1.525 z"  gorn="0.3.24.0.0.0.0.0.0.0.0.0.0.0.0" style="fill:#1a1a1a" id="path106"/>
                                                        <path d="m 10.883,85.994 0.511,-0.188 c 0,0 0,-0.708 1.136,-1.46 0.681,-0.449 1.246,-0.646 2.085,-1.045 0.84,-0.401 2.035,-0.486 3.056,-0.486 0.282,0 26.191,0 26.478,0 1.021,0 2.213,0.085 3.052,0.486 0.841,0.398 1.408,0.596 2.085,1.045 1.14,0.752 1.139,1.46 1.139,1.46 l 0.501,0.185 z"  gorn="0.3.24.0.0.0.0.0.0.0.0.0.0.0.1" id="path108"/>
                                                    </g>
                                                </g>
                                            </g>
                                        </g>
                                    </g>
                                </g>
                            </g>
                        </g>
                    </g>
                </g>
            </g>
        </g>
        <g transform="matrix(17.356928,0,0,18.001219,-0.43194511,800.30949)" >
            <g >
                <g >
                    <g >
                        <g >
                            <g >
                                <g >
                                    <g  gorn="0.3.25.0.0.0.0.0.0.0" id="g1032">
                                        <g  gorn="0.3.25.0.0.0.0.0.0.0.0" id="g1030">
                                            <g  gorn="0.3.25.0.0.0.0.0.0.0.0.0" id="g1028">
                                                <g  gorn="0.3.25.0.0.0.0.0.0.0.0.0.0" id="g1026">
                                                    <g  gorn="0.3.25.0.0.0.0.0.0.0.0.0.0.0" id="g110">
                                                        <path d="m 107.719,87.143 1.96,-1.525 c 0,0 1.398,-1.582 2.616,-3.269 0.726,-1.006 1.335,-4.549 2.23,-5.448 0.898,-0.898 2.182,-1.09 3.271,-1.09 0.304,0 25.249,0 25.552,0 1.09,0 2.369,0.188 3.271,1.09 0.898,0.9 1.508,4.442 2.231,5.448 1.217,1.687 2.615,3.269 2.615,3.269 l 1.961,1.525 z"  gorn="0.3.25.0.0.0.0.0.0.0.0.0.0.0.0" style="fill:#1a1a1a" id="path112"/>
                                                        <path d="m 110.549,85.994 0.511,-0.188 c 0,0 0,-0.708 1.136,-1.46 0.681,-0.449 1.245,-0.646 2.085,-1.045 0.843,-0.401 2.035,-0.486 3.056,-0.486 0.282,0 26.192,0 26.479,0 1.021,0 2.213,0.085 3.053,0.486 0.841,0.398 1.407,0.596 2.087,1.045 1.138,0.752 1.137,1.46 1.137,1.46 l 0.501,0.185 z"  gorn="0.3.25.0.0.0.0.0.0.0.0.0.0.0.1" id="path114"/>
                                                    </g>
                                                </g>
                                            </g>
                                        </g>
                                    </g>
                                </g>
                            </g>
                        </g>
                    </g>
                </g>
            </g>
        </g>
        <path d="m 2881.1647,844.34821 h -75.1648"  stroke-width="40.7208" stroke="#000000" gorn="0.3.26" fill="none" id="connector0pin"/>
        <path d="m 2805.6915,609.75794 h 75.1648"  stroke-width="40.7208" stroke="#ff0000" gorn="0.3.27" fill="none" id="connector1pin"/>
        <g transform="matrix(-13.265936,0,0,-13.888387,2299.4176,723.05725)" >
            <g >
                <g >
                    <g >
                        <g >
                            <g >
                                <g >
                                    <g font-size="284.454" fill-opacity="1" stroke-opacity="1" xml:space="preserve"  stroke-width="0.8" stroke="none" gorn="0.3.28.0.0.0.0.0.0.0" xmlns:xml="http://www.w3.org/XML/1998/namespace" fill="#000000" id="text_1">
                                        <g  gorn="0.3.28.0.0.0.0.0.0.0.0" style="font-style:normal;font-variant:normal;font-weight:bold;font-stretch:normal;font-size:16.0005px;font-family:Droid Sans;-inkscape-font-specification:'Droid Sans, Bold';font-variant-ligatures:normal;font-variant-caps:normal;font-variant-numeric:normal;font-variant-east-asian:normal;fill:#f9f9f9" id="tspan4376">
                                            <text y="30.097544"  gorn="0.3.28.0.0.0.0.0.0.0.0.0" id="tspan1612" x="-10.484877">+     18650 battery     -</text>
                                        </g>
                                    </g>
                                </g>
                            </g>
                        </g>
                    </g>
                </g>
            </g>
        </g>
        <g transform="matrix(13.265936,0,0,13.888387,2721.9928,2269.8115)" >
            <g >
                <g >
                    <g >
                        <g >
                            <g >
                                <g >
                                    <g  gorn="0.3.29.0.0.0.0.0.0.0" id="text_2">
                                        <g  gorn="0.3.29.0.0.0.0.0.0.0.0" id="g1044">
                                            <g  gorn="0.3.29.0.0.0.0.0.0.0.0.0" id="g1042">
                                                <g  gorn="0.3.29.0.0.0.0.0.0.0.0.0.0" id="g1040">
                                                    <g font-size="284.454" fill-opacity="1" stroke-opacity="1" xml:space="preserve"  stroke-width="0.8" stroke="none" gorn="0.3.29.0.0.0.0.0.0.0.0.0.0.0" xmlns:xml="http://www.w3.org/XML/1998/namespace" fill="#000000" id="text4378">
                                                        <g  gorn="0.3.29.0.0.0.0.0.0.0.0.0.0.0.0" style="font-style:normal;font-variant:normal;font-weight:bold;font-stretch:normal;font-size:16.0005px;font-family:Droid Sans;-inkscape-font-specification:'Droid Sans, Bold';font-variant-ligatures:normal;font-variant-caps:normal;font-variant-numeric:normal;font-variant-east-asian:normal;fill:#f9f9f9" id="tspan4380">
                                                            <text y="-74.586571"  gorn="0.3.29.0.0.0.0.0.0.0.0.0.0.0.0.0" id="tspan1616" x="-180.96153">+     18650 battery     -</text>
                                                        </g>
                                                    </g>
                                                </g>
                                            </g>
                                        </g>
                                    </g>
                                </g>
                            </g>
                        </g>
                    </g>
                </g>
            </g>
        </g>
        <path d="M 2766.4075,1876.2726 V 930.47081 c 0,-13.95095 -7.3767,-25.50773 -16.4023,-25.50773 -9.0256,0 -16.3502,11.55678 -16.3502,25.50773 l -17.357,461.31709 c 0,14.0229 -7.4287,25.5077 -16.4023,25.5077 -8.9735,0 -16.4023,-11.4848 -16.4023,-25.5077 l -17.3569,-357.3961 c 0,-14.0229 -7.394,-25.5257 -16.3502,-25.5257 -9.043,0 -16.3849,11.5028 -16.3849,25.5257 v 280.8189"  stroke-width="17.6761" stroke="#c9c9c9" gorn="0.3.30" fill="none" id="path4949"/>
        <rect width="65.765396" height="284.11301" y="1790.7012"  stroke-width="13.5736" gorn="0.3.31" fill="#c9c9c9" id="rect4951" x="2702.9907"/>
        <path d="m 37.812157,1647.4259 v 551.2706 c 0,13.951 7.3767,25.5078 16.4023,25.5078 9.0256,0 16.350203,-11.5568 16.350203,-25.5078 l 17.357,-461.3171 c 0,-14.0229 7.4287,-25.5077 16.4023,-25.5077 8.9735,0 16.4023,11.4848 16.4023,25.5077 l 17.3569,357.3961 c 0,14.0229 7.394,25.5257 16.3502,25.5257 9.043,0 16.3849,-11.5028 16.3849,-25.5257 v -280.8189"  stroke-width="17.6761" stroke="#c9c9c9" gorn="0.3.32" fill="none" id="path4953"/>
    </g>
</svg>
