<?xml version='1.0' encoding='UTF-8'?>
<!DOCTYPE svg>
<!-- Creator: CorelDRAW 2018 (64-Bit) -->
<svg xmlns="http://www.w3.org/2000/svg" xml:space="preserve" image-rendering="optimizeQuality" clip-rule="evenodd" shape-rendering="geometricPrecision"  fill-rule="evenodd" height="41.41mm" text-rendering="geometricPrecision" version="1.1" xmlns:xml="http://www.w3.org/XML/1998/namespace" width="84.2934mm" viewBox="0 0 9480.86 4657.57">
    <desc >
        <referenceFile >18650 holder pcb.svg</referenceFile>
    </desc>
    <g gorn="0.1"  id="silkscreen">
        <metadata  id="CorelCorpID_0Corel-Layer"/>
        <path fill="none" stroke-width="22.49"  stroke-miterlimit="22.9256" d="M1252.97 1130.93c63.67,0 115.29,50.35 115.29,112.47 0,62.12 -51.61,112.47 -115.29,112.47 -63.67,0 -115.29,-50.35 -115.29,-112.47 0,-62.12 51.61,-112.47 115.29,-112.47z" stroke="black"/>
        <path fill="none" stroke-width="22.49"  stroke-miterlimit="22.9256" d="M1252.97 3301.69c63.67,0 115.29,50.35 115.29,112.47 0,62.12 -51.61,112.47 -115.29,112.47 -63.67,0 -115.29,-50.35 -115.29,-112.47 0,-62.12 51.61,-112.47 115.29,-112.47z" stroke="black"/>
        <polygon fill="none" stroke-width="22.49" points="11.25,11.25 9469.62,11.25 9469.62,4646.32 11.25,4646.32 "  stroke-miterlimit="22.9256" stroke="black"/>
        <path fill="none" stroke-width="22.49"  stroke-miterlimit="22.9256" d="M8227.9 1130.93c63.67,0 115.29,50.35 115.29,112.47 0,62.12 -51.61,112.47 -115.29,112.47 -63.67,0 -115.29,-50.35 -115.29,-112.47 0,-62.12 51.61,-112.47 115.29,-112.47z" stroke="black"/>
        <path fill="none" stroke-width="22.49"  stroke-miterlimit="22.9256" d="M8227.9 3301.69c63.67,0 115.29,50.35 115.29,112.47 0,62.12 -51.61,112.47 -115.29,112.47 -63.67,0 -115.29,-50.35 -115.29,-112.47 0,-62.12 51.61,-112.47 115.29,-112.47z" stroke="black"/>
        <polygon fill="black" points="623.71,2554.02 623.71,2367.36 438.01,2367.36 438.01,2289.27 623.71,2289.27 623.71,2103.58 702.75,2103.58 702.75,2289.27 888.45,2289.27 888.45,2367.36 702.75,2367.36 702.75,2554.02 "  fill-rule="nonzero"/>
        <polygon fill="black" points="8688.13,2370.69 8688.13,2286.89 8947.15,2286.89 8947.15,2370.69 "  fill-rule="nonzero"/>
        <path fill="black"  fill-rule="nonzero" d="M1994.66 2019.77l154.91 0c20.16,0.31 39.84,6.83 59.04,19.53 19.05,12.7 33.18,28.08 42.07,46.02l77.14 156.34c14.6,28.24 21.9,57.61 21.9,88.39 0,28.41 -7.77,57.78 -23.17,87.78l-77.78 154.43c-9.83,19.84 -24.11,35.71 -42.68,47.61 -18.57,11.91 -39.37,17.94 -62.38,17.94l-149.2 0c-10.79,0 -20,-3.81 -27.61,-11.58 -7.61,-7.78 -11.43,-16.98 -11.43,-27.46 0,-10.8 3.81,-20.16 11.43,-28.1 7.61,-7.94 16.83,-11.9 27.61,-11.9l40.95 0 0 -459.96 -40.47 0c-10.96,0 -20.32,-3.96 -27.94,-11.9 -7.77,-7.93 -11.58,-17.3 -11.58,-28.1 0,-10.47 3.81,-19.67 11.43,-27.46 7.61,-7.77 16.83,-11.58 27.77,-11.58zm118.89 79.04l0 459.96 27.3 0.79c17.3,0 30.31,-8.41 39.04,-25.55l77.93 -153.16c9.68,-20 14.28,-36.98 13.8,-50.62 0,-17.14 -3.8,-33.34 -11.58,-48.57l-79.67 -159.35c-8.26,-15.71 -21.91,-23.65 -41.11,-23.5l-25.71 0z"/>
        <path fill="black" gorn="0.1.9"  id="1" fill-rule="nonzero" d="M2718.24 2558.77l131.42 -83.8 0 -245.85c0,-10.8 3.81,-20.16 11.43,-28.1 7.63,-7.77 16.83,-11.74 27.62,-11.74 10.79,0 20,3.97 27.61,11.9 7.63,7.78 11.43,17.14 11.43,27.94l0 369.65c0,10.63 -3.8,19.67 -11.58,27.46 -7.77,7.77 -16.98,11.58 -27.46,11.58 -10.48,0 -19.68,-3.81 -27.46,-11.58 -7.78,-7.78 -11.6,-16.83 -11.6,-27.3l0 -30.64 -67.77 43.97c-26.67,16.98 -53.65,25.55 -80.79,25.55l-36.34 0c-31.9,0 -59.2,-11.11 -82.22,-33.48 -22.85,-22.22 -35.07,-49.52 -36.66,-81.75l-11.43 -294.26c-0.64,-10.16 3.01,-19.36 10.94,-27.14 7.94,-7.93 17.3,-11.9 28.1,-11.9 10.47,0 19.53,3.81 27.14,11.58 7.61,7.77 11.58,16.98 11.9,27.46l10.48 288.54c0.94,27.94 16.83,41.91 47.77,41.91l47.45 0z"/>
        <path fill="black" gorn="0.1.10"  id="2" fill-rule="nonzero" d="M3224.39 2355.94l153.48 0c8.4,0 20.63,1.9 36.34,5.71l-1.74 -55.24c0,-10.96 -3.81,-20.16 -11.43,-27.61 -7.63,-7.63 -16.98,-11.43 -27.78,-11.43l-149.19 0c-10.47,0 -19.68,-3.81 -27.46,-11.6 -7.78,-7.77 -11.75,-16.97 -11.75,-27.46 0,-10.79 3.81,-20 11.43,-27.61 7.63,-7.61 16.83,-11.43 27.78,-11.43l148.87 0c32.38,0 59.99,11.27 82.85,33.97 22.85,22.53 34.77,50.31 35.71,83.16l9.53 292.36c0,10.79 -3.81,20 -11.58,27.61 -7.78,7.61 -16.98,11.43 -27.47,11.43 -11.1,0 -20.63,-3.81 -28.4,-11.43 -7.78,-7.61 -11.6,-16.83 -11.6,-27.61l-66.02 39.04 -132.05 0c-32.85,0 -60.79,-11.43 -83.65,-34.44 -23.01,-22.85 -34.44,-50.79 -34.44,-83.65l0 -45.71c0,-32.54 11.58,-60.31 34.75,-83.48 23.18,-23.01 51.11,-34.6 83.8,-34.6zm194.58 152.36l-2.22 -33.17c-0.31,-11.27 -4.29,-20.47 -11.58,-27.94 -7.47,-7.46 -16.67,-11.26 -27.47,-11.26l-153.79 0c-10.8,0 -20,3.8 -27.62,11.43 -7.61,7.61 -11.43,16.81 -11.43,27.61l0 43.81c0,10.47 3.81,19.67 11.6,27.46 7.77,7.77 16.97,11.58 27.46,11.58l110.15 0 84.91 -49.52z"/>
        <path fill="black" gorn="0.1.11"  id="3" fill-rule="nonzero" d="M3998.92 2637.81l-236.8 0c-10.96,0 -20.16,-3.97 -27.78,-11.9 -7.61,-7.94 -11.43,-17.3 -11.43,-28.1 0,-10.47 3.81,-19.68 11.43,-27.46 7.63,-7.78 16.83,-11.58 27.62,-11.58l78.08 0 0 -460.91 -78.39 0c-10.8,0 -19.84,-3.81 -27.47,-11.43 -7.46,-7.63 -11.27,-16.83 -11.27,-27.62 0,-10.79 3.81,-20 11.27,-27.61 7.63,-7.61 16.83,-11.43 27.62,-11.43l118.4 0c10.47,0 19.67,3.81 27.3,11.58 7.77,7.78 11.58,16.98 11.58,27.46l0 499.96 79.68 0c10.63,0 19.83,3.8 27.61,11.58 7.77,7.77 11.74,16.98 11.74,27.46 0,10.8 -3.81,20.16 -11.43,28.1 -7.61,7.93 -16.83,11.9 -27.77,11.9z"/>
        <path fill="black" gorn="0.1.12"  id="4" fill-rule="nonzero" d="M4870.26 2559.72l119.2 0 0 -461.85 -117.29 0c-10.8,0 -20,-3.81 -27.62,-11.43 -7.46,-7.63 -11.27,-16.83 -11.27,-27.62 0,-10.79 3.81,-20 11.27,-27.61 7.63,-7.61 16.83,-11.43 27.62,-11.43l195.37 0 0 539.95 78.09 0 0 -162.84c0,-10.47 3.81,-19.68 11.43,-27.46 7.61,-7.77 16.83,-11.58 27.61,-11.58 10.8,0 20,3.81 27.62,11.43 7.61,7.61 11.43,16.83 11.43,27.61l0 201.89c0,10.79 -3.81,20 -11.43,27.61 -7.46,7.61 -16.67,11.43 -27.46,11.43l-314.58 0c-10.79,0 -20,-3.97 -27.46,-11.9 -7.61,-7.78 -11.43,-17.3 -11.43,-28.1 0,-10.47 3.81,-19.53 11.27,-26.98 7.61,-7.46 16.83,-11.11 27.61,-11.11z"/>
        <path fill="black" gorn="0.1.13"  id="5" fill-rule="nonzero" d="M5406.56 2558.62l0 -191.09c0,-21.43 7.77,-39.84 23.17,-55.24 15.56,-15.4 34.12,-23.01 55.87,-23.01l0 -230.46c0,-10.79 3.66,-20 11.11,-27.61 7.46,-7.61 16.67,-11.43 27.78,-11.43l158.4 0c10.79,0 20,3.81 27.61,11.43 7.46,7.61 11.27,16.83 11.27,27.61l0 230.46c21.11,0 39.35,7.46 54.91,22.54 15.4,15.07 23.18,33.64 23.18,55.71l0 192.04c0,21.43 -7.78,39.84 -23.18,55.24 -15.56,15.4 -33.64,23.01 -54.75,23.01l-236.49 0c-22.06,0 -40.63,-8.1 -55.87,-24.28 -15.4,-16.03 -23.01,-34.44 -23.01,-54.91zm157.13 -460.75l0 191.41 79.99 0 0 -191.41 -79.99 0zm-78.09 269.5l0 192.35 236.17 0 0 -192.35 -236.17 0z"/>
        <path fill="black" gorn="0.1.14"  id="6" fill-rule="nonzero" d="M6023.33 2019.77l38.72 0c10.8,0 19.84,3.81 27.47,11.58 7.46,7.78 11.26,16.98 11.26,27.46 0,10.8 -3.8,20 -11.43,27.62 -7.61,7.61 -16.81,11.43 -27.61,11.43l0 259.02 276 0c10.64,0 19.84,3.97 27.62,11.91 7.77,7.93 11.58,17.3 11.58,28.08l0 201.89c0,10.79 -3.97,20 -11.9,27.61 -7.78,7.61 -17.31,11.43 -28.1,11.43l-313.31 0c-10.79,0 -20.31,-3.81 -28.08,-11.58 -7.94,-7.78 -11.91,-16.98 -11.91,-27.46l0 -539.96c0,-10.79 3.81,-20 11.58,-27.61 7.63,-7.61 16.98,-11.43 28.1,-11.43zm38.41 416.16l0 123.79 236.16 0 0 -123.79 -236.16 0z"/>
        <path fill="black" gorn="0.1.15"  id="7" fill-rule="nonzero" d="M6701.84 2559.72l180.77 0 0 -192.35 -236.16 0 0 -347.59 275.2 0c10.48,0 19.68,3.81 27.47,11.58 7.77,7.78 11.58,16.98 11.58,27.46 0,10.8 -3.81,20 -11.43,27.62 -7.61,7.61 -16.83,11.43 -27.62,11.43l-196.17 0 0 191.41 157.13 0c21.11,0 39.37,7.77 54.92,23.33 15.39,15.56 23.17,33.81 23.17,54.92l0 192.04c0,21.43 -7.61,39.84 -23.01,55.24 -15.4,15.4 -33.65,23.01 -55.08,23.01l-180.94 0c-16.03,0 -33.17,-3.81 -51.58,-11.58l-59.04 -24.6c-15.71,-6.51 -23.65,-18.9 -23.65,-37.14 0,-10.96 3.5,-20.16 10.64,-27.62 7.14,-7.61 15.87,-11.43 26.03,-11.43 7.77,0 16.83,2.38 26.98,6.98l51.58 21.74c6.35,3.66 12.7,5.56 19.21,5.56z"/>
        <path fill="black" gorn="0.1.16"  id="8" fill-rule="nonzero" d="M7132.11 2562.42l0 -467.25c0,-20.47 7.46,-38.25 22.38,-53.01 14.76,-14.93 32.53,-22.38 52.85,-22.38l243.62 0c20.16,0 37.62,7.46 52.38,22.38 14.76,14.76 22.07,32.54 22.07,53.01l0 467.25c0,20.8 -7.31,38.57 -22.07,53.34 -14.76,14.76 -32.54,22.06 -53.17,22.06l-242.83 0c-20.95,0 -38.89,-7.3 -53.34,-22.06 -14.6,-14.77 -21.9,-32.54 -21.9,-53.34zm316.15 -2.7l0 -460.91 -238.06 0 0 460.91 238.06 0z"/>
    </g>
    <g gorn="0.2"  id="copper1">
        <metadata  id="CorelCorpID_1Corel-Layer"/>
        <g gorn="0.2.1"  id="copper0">
            <circle fill="none" stroke-width="28.12" cy="1243.41" r="89.98" gorn="0.2.1.0"  id="connector2pin" stroke-miterlimit="22.9256" cx="663.23" stroke="#F7BD13"/>
            <circle fill="none" stroke-width="28.12" cy="3414.17" r="89.98" gorn="0.2.1.1"  id="connector3pin" stroke-miterlimit="22.9256" cx="663.23" stroke="#F7BD13"/>
            <circle fill="none" stroke-width="28.12" cy="1243.41" r="89.98" gorn="0.2.1.2"  id="connector0pin" stroke-miterlimit="22.9256" cx="8817.62" stroke="#F7BD13"/>
            <circle fill="none" stroke-width="28.12" cy="3414.17" r="89.98" gorn="0.2.1.3"  id="connector1pin" stroke-miterlimit="22.9256" cx="8817.62" stroke="#F7BD13"/>
        </g>
    </g>
</svg>
