<?xml version='1.0' encoding='UTF-8'?>
<!DOCTYPE svg>
<!-- Creator: CorelDRAW 2018 (64-Bit) -->
<svg xmlns="http://www.w3.org/2000/svg" xml:space="preserve" image-rendering="optimizeQuality" clip-rule="evenodd" shape-rendering="geometricPrecision"  fill-rule="evenodd" height="16.5196mm" text-rendering="geometricPrecision" version="1.1" xmlns:xml="http://www.w3.org/XML/1998/namespace" width="10.407mm" viewBox="0 0 245 389">
    <desc >
        <referenceFile >18650 holder schematic.svg</referenceFile>
    </desc>
    <g gorn="0.1"  id="copper1">
        <metadata  id="CorelCorpID_0Corel-Layer"/>
        <rect fill="none" gorn="0.1.1"  y="95" id="connector0terminal" height="0" width="0" x="242"/>
        <path fill="#8C8C8C"  fill-rule="nonzero" d="M214 86l-2 0 0 -12c0,0 -1,1 -2,1 -1,0 -1,1 -2,1l0 -2c1,0 2,-1 3,-2 1,-1 1,-1 2,-2l1 0 0 15z"/>
        <g gorn="0.1.3"  id="_1014653024">
            <line x2="93" fill="none" stroke-width="10" x1="93" stroke-linecap="round"  stroke-miterlimit="22.9256" y2="184" stroke="black" y1="5"/>
            <line x2="123" fill="none" stroke-width="10" x1="123" stroke-linecap="round"  stroke-miterlimit="22.9256" y2="125" stroke="black" y1="65"/>
            <line x2="153" fill="none" stroke-width="10" x1="153" stroke-linecap="round"  stroke-miterlimit="22.9256" y2="184" stroke="black" y1="5"/>
            <line x2="183" fill="none" stroke-width="10" x1="183" stroke-linecap="round"  stroke-miterlimit="22.9256" y2="125" stroke="black" y1="65"/>
            <line x2="87" fill="none" stroke-width="4" x1="63" stroke-linecap="round"  stroke-miterlimit="22.9256" y2="95" stroke="black" y1="95"/>
            <line x2="183" fill="none" stroke-width="6" gorn="0.1.3.5" x1="242" stroke-linecap="round"  id="connector0pin" stroke-miterlimit="22.9256" y2="95" stroke="#787878" y1="95" connectorname="-"/>
            <line x2="63" fill="none" stroke-width="6" gorn="0.1.3.6" x1="3" stroke-linecap="round"  id="connector2pin" stroke-miterlimit="22.9256" y2="95" stroke="#787878" text-anchor="middle" y1="95" connectorname="+"/>
        </g>
        <rect fill="none"  y="95" height="0" width="0" x="3"/>
        <path fill="#8C8C8C"  fill-rule="nonzero" d="M28 82l2 0c0,1 1,2 1,2 1,0 1,1 2,1 1,0 2,0 2,-1 1,-1 1,-1 1,-2 0,-1 0,-2 -1,-2 -1,-1 -1,-1 -2,-1 0,0 -1,0 -1,0l0 -2c0,0 0,0 0,0 1,0 1,0 2,-1 1,0 1,-1 1,-2 0,-1 0,-1 -1,-2 0,0 -1,-1 -2,-1 -1,0 -1,0 -2,1 0,0 -1,1 -1,2l-2 0c0,-1 1,-2 2,-3 1,-1 2,-1 3,-1 1,0 2,0 2,1 1,0 1,1 2,1 0,1 1,1 1,2 0,1 0,1 -1,2 0,1 -1,1 -2,1 1,0 2,1 2,1 0,1 1,1 1,2 0,1 0,2 -1,3 -1,1 -2,1 -4,1 -1,0 -2,0 -3,-1 -1,-1 -1,-2 -1,-3z"/>
        <rect fill="none" gorn="0.1.6"  y="295" id="connector0terminal_0" height="0" width="0" x="242"/>
        <path fill="#8C8C8C"  fill-rule="nonzero" d="M217 284l0 2 -10 0c0,0 0,-1 0,-1 0,-1 1,-1 1,-2 1,-1 1,-1 2,-2 2,-1 3,-2 3,-3 1,-1 1,-2 1,-2 0,-1 0,-1 -1,-2 -1,0 -1,-1 -2,-1 -1,0 -2,0 -2,1 -1,1 -1,1 -1,2l-2 0c0,-1 1,-2 1,-3 1,-1 2,-1 3,-1 1,0 3,0 3,1 1,1 1,2 1,3 0,1 0,1 0,2 0,1 -1,1 -1,2 -1,1 -2,2 -3,3 -1,1 -2,2 -2,2 0,0 -1,1 -1,1l7 0z"/>
        <g gorn="0.1.8"  id="_1012158832">
            <line x2="93" fill="none" stroke-width="10" x1="93" stroke-linecap="round"  stroke-miterlimit="22.9256" y2="385" stroke="black" y1="205"/>
            <line x2="123" fill="none" stroke-width="10" x1="123" stroke-linecap="round"  stroke-miterlimit="22.9256" y2="325" stroke="black" y1="265"/>
            <line x2="153" fill="none" stroke-width="10" x1="153" stroke-linecap="round"  stroke-miterlimit="22.9256" y2="385" stroke="black" y1="205"/>
            <line x2="183" fill="none" stroke-width="10" x1="183" stroke-linecap="round"  stroke-miterlimit="22.9256" y2="325" stroke="black" y1="265"/>
            <line x2="87" fill="none" stroke-width="4" x1="63" stroke-linecap="round"  stroke-miterlimit="22.9256" y2="295" stroke="black" y1="295"/>
            <line x2="183" fill="none" stroke-width="6" gorn="0.1.8.5" x1="242" stroke-linecap="round"  id="connector1pin" stroke-miterlimit="22.9256" y2="295" stroke="#787878" y1="295" connectorname="-"/>
            <line x2="63" fill="none" stroke-width="6" gorn="0.1.8.6" x1="3" stroke-linecap="round"  id="connector3pin" stroke-miterlimit="22.9256" y2="295" stroke="#787878" text-anchor="middle" y1="295" connectorname="+"/>
        </g>
        <rect fill="none" gorn="0.1.9"  y="295" id="connector1terminal_3" height="0" width="0" x="3"/>
        <path fill="#8C8C8C"  fill-rule="nonzero" d="M34 286l0 -4 -6 0 0 -2 7 -10 1 0 0 10 2 0 0 2 -2 0 0 4 -2 0zm0 -5l0 -7 -5 7 5 0z"/>
    </g>
</svg>
